<svg width="88" height="36" viewBox="0 0 88 36" fill="none" xmlns="http://www.w3.org/2000/svg">
<path d="M14.364 2.8H24.012V4.168C23.604 4.432 23.136 4.66 22.608 4.852C22.08 5.02 21.6 5.14 21.168 5.212L14.328 13.888C14.88 14.656 15.528 15.532 16.272 16.516C17.016 17.476 17.808 18.484 18.648 19.54C19.488 20.572 20.352 21.628 21.24 22.708C22.128 23.764 22.992 24.772 23.832 25.732L25.56 26.776V28H19.296L17.856 26.992C17.28 26.272 16.668 25.48 16.02 24.616C15.396 23.728 14.772 22.816 14.148 21.88C13.524 20.92 12.912 19.96 12.312 19C11.712 18.04 11.148 17.104 10.62 16.192H9.072V25.588C9.6 25.684 10.08 25.828 10.512 26.02C10.944 26.212 11.316 26.416 11.628 26.632V28H0.72V26.632C1.2 26.392 1.692 26.188 2.196 26.02C2.7 25.828 3.192 25.684 3.672 25.588V5.212C3.12 5.14 2.58 5.008 2.052 4.816C1.548 4.624 1.104 4.408 0.72 4.168V2.8H11.628V4.168C11.316 4.36 10.932 4.552 10.476 4.744C10.044 4.936 9.576 5.092 9.072 5.212V14.356L11.196 13.852L16.992 5.212C16.512 5.116 16.032 4.972 15.552 4.78C15.096 4.564 14.7 4.36 14.364 4.168V2.8ZM36.2506 35.2H26.3146V33.796C27.1306 33.412 27.9226 33.124 28.6906 32.932V12.556L26.3146 12.268V10.864C26.6986 10.696 27.1666 10.54 27.7186 10.396C28.2946 10.252 28.8826 10.132 29.4826 10.036C30.0826 9.916 30.6586 9.82 31.2106 9.748C31.7866 9.676 32.2666 9.616 32.6506 9.568H33.8746V13.6H33.9106C34.3186 12.448 34.9546 11.488 35.8186 10.72C36.7066 9.952 37.9306 9.568 39.4906 9.568C40.5466 9.568 41.4946 9.748 42.3346 10.108C43.1986 10.444 43.9186 10.984 44.4946 11.728C45.0946 12.448 45.5506 13.384 45.8626 14.536C46.1986 15.664 46.3666 17.02 46.3666 18.604C46.3666 20.116 46.1506 21.484 45.7186 22.708C45.3106 23.932 44.7106 24.964 43.9186 25.804C43.1506 26.644 42.2026 27.292 41.0746 27.748C39.9706 28.204 38.7106 28.432 37.2946 28.432C36.4786 28.432 35.8306 28.372 35.3506 28.252C34.8946 28.156 34.4026 27.976 33.8746 27.712V32.932C34.2586 32.98 34.6426 33.064 35.0266 33.184C35.4106 33.328 35.8186 33.532 36.2506 33.796V35.2ZM37.4026 12.448C36.5866 12.448 35.8546 12.736 35.2066 13.312C34.5826 13.888 34.1386 14.776 33.8746 15.976V25.552C34.2586 25.84 34.6666 26.056 35.0986 26.2C35.5306 26.32 36.0946 26.38 36.7906 26.38C38.1586 26.38 39.1666 25.72 39.8146 24.4C40.4626 23.08 40.7866 21.148 40.7866 18.604C40.7866 16.636 40.5346 15.124 40.0306 14.068C39.5506 12.988 38.6746 12.448 37.4026 12.448ZM64.4161 22.78C64.4161 23.308 64.4161 23.764 64.4161 24.148C64.4401 24.532 64.4761 24.94 64.5241 25.372L67.0081 25.732V26.992C66.7201 27.136 66.3241 27.28 65.8201 27.424C65.3401 27.568 64.8241 27.712 64.2721 27.856C63.7441 27.976 63.2161 28.072 62.6881 28.144C62.1601 28.24 61.6921 28.312 61.2841 28.36H60.0601C59.8201 27.808 59.6761 27.256 59.6281 26.704C59.5801 26.152 59.5441 25.48 59.5201 24.688H59.3401C59.2201 25.168 59.0161 25.636 58.7281 26.092C58.4401 26.524 58.0681 26.92 57.6121 27.28C57.1801 27.616 56.6641 27.892 56.0641 28.108C55.4641 28.324 54.7921 28.432 54.0481 28.432C53.2561 28.432 52.5241 28.312 51.8521 28.072C51.1801 27.832 50.5921 27.496 50.0881 27.064C49.5841 26.632 49.1881 26.116 48.9001 25.516C48.6121 24.892 48.4681 24.196 48.4681 23.428C48.4681 22.348 48.6721 21.46 49.0801 20.764C49.4881 20.068 50.1241 19.504 50.9881 19.072C51.8761 18.616 53.0041 18.28 54.3721 18.064C55.7641 17.848 57.4441 17.692 59.4121 17.596C59.6041 15.532 59.5201 14.02 59.1601 13.06C58.8001 12.1 58.0201 11.62 56.8201 11.62C56.0761 11.62 55.3921 11.74 54.7681 11.98L53.0761 16.3H51.4921C51.3001 16.012 51.1081 15.688 50.9161 15.328C50.7481 14.944 50.5801 14.548 50.4121 14.14C50.2681 13.708 50.1361 13.276 50.0161 12.844C49.9201 12.412 49.8481 11.992 49.8001 11.584C50.7121 10.96 51.8881 10.468 53.3281 10.108C54.7681 9.748 56.2921 9.568 57.9001 9.568C59.2681 9.568 60.3841 9.724 61.2481 10.036C62.1121 10.324 62.7841 10.732 63.2641 11.26C63.7681 11.764 64.1161 12.364 64.3081 13.06C64.5001 13.756 64.5961 14.5 64.5961 15.292C64.5961 16.732 64.5601 18.04 64.4881 19.216C64.4401 20.368 64.4161 21.556 64.4161 22.78ZM56.3161 25.552C56.8201 25.552 57.2521 25.456 57.6121 25.264C57.9721 25.072 58.2721 24.844 58.5121 24.58C58.7761 24.316 58.9681 24.028 59.0881 23.716C59.2321 23.404 59.3401 23.128 59.4121 22.888V19.288C58.2841 19.312 57.3601 19.384 56.6401 19.504C55.9201 19.624 55.3561 19.828 54.9481 20.116C54.5401 20.38 54.2521 20.728 54.0841 21.16C53.9401 21.568 53.8681 22.072 53.8681 22.672C53.8681 23.584 54.0841 24.292 54.5161 24.796C54.9481 25.3 55.5481 25.552 56.3161 25.552ZM68.6512 18.244C68.6512 15.244 68.9272 12.736 69.4792 10.72C70.0552 8.68 70.9192 7.048 72.0712 5.824C73.2232 4.576 74.6632 3.688 76.3912 3.16C78.1432 2.632 80.1952 2.368 82.5472 2.368L84.8872 0.567999H86.2912C86.2912 1.024 86.2552 1.552 86.1832 2.152C86.1352 2.728 86.0512 3.304 85.9312 3.88C85.8352 4.456 85.7272 4.984 85.6072 5.464C85.4872 5.944 85.3792 6.304 85.2832 6.544C82.7632 6.544 80.6272 6.628 78.8752 6.796C77.1472 6.964 75.7192 7.336 74.5912 7.912C73.4872 8.488 72.6472 9.328 72.0712 10.432C71.4952 11.512 71.0992 12.988 70.8832 14.86H71.0632C71.4232 14.236 71.8792 13.648 72.4312 13.096C73.0072 12.52 73.6432 12.028 74.3392 11.62C75.0592 11.188 75.8152 10.852 76.6072 10.612C77.4232 10.372 78.2632 10.252 79.1272 10.252C81.7432 10.252 83.7832 10.972 85.2472 12.412C86.7112 13.828 87.4432 16.06 87.4432 19.108C87.4432 20.452 87.2272 21.7 86.7952 22.852C86.3632 23.98 85.7272 24.964 84.8872 25.804C84.0712 26.62 83.0512 27.268 81.8272 27.748C80.6032 28.204 79.2112 28.432 77.6512 28.432C76.2832 28.432 75.0472 28.204 73.9432 27.748C72.8392 27.292 71.8912 26.632 71.0992 25.768C70.3072 24.904 69.6952 23.848 69.2632 22.6C68.8552 21.328 68.6512 19.876 68.6512 18.244ZM74.2312 18.568C74.2312 20.08 74.3152 21.34 74.4832 22.348C74.6752 23.332 74.9392 24.124 75.2752 24.724C75.6352 25.324 76.0552 25.756 76.5352 26.02C77.0392 26.26 77.6152 26.38 78.2632 26.38C79.4632 26.38 80.3512 25.828 80.9272 24.724C81.5272 23.596 81.8272 21.808 81.8272 19.36C81.8272 16.936 81.4552 15.232 80.7112 14.248C79.9672 13.264 78.9352 12.772 77.6152 12.772C77.0392 12.772 76.4752 12.928 75.9232 13.24C75.3952 13.552 74.9632 13.912 74.6272 14.32C74.3632 15.448 74.2312 16.864 74.2312 18.568Z" fill="#1B1B1B"/>
</svg>
